<svg width="284" height="277" viewBox="0 0 284 277" fill="none" xmlns="http://www.w3.org/2000/svg">
<path d="M228.734 190.134H228.013V255.833H228.734V190.134Z" fill="#231F20"/>
<path d="M243.83 80.1003H243.109V246.002H243.83V80.1003Z" fill="#231F20"/>
<path d="M236.289 133.626H235.568V255.832H236.289V133.626Z" fill="#231F20"/>
<path d="M258.942 110.393H258.22V236.532H258.942V110.393Z" fill="#231F20"/>
<path d="M251.385 77.61H250.664V247.935H251.385V77.61Z" fill="#231F20"/>
<path d="M260.396 259.889C269.85 250.439 269.85 235.117 260.395 225.667C250.941 216.216 235.613 216.216 226.159 225.667C216.705 235.117 216.705 250.439 226.159 259.889C235.613 269.339 250.941 269.339 260.396 259.889Z" fill="#CCCCCC"/>
<path d="M227.848 216.478H258.727C260.366 216.478 261.711 218.264 261.711 220.459V226.702C261.711 228.897 260.366 230.683 258.727 230.683H227.848C226.209 230.683 224.865 228.897 224.865 226.702V220.459C224.865 218.264 226.209 216.478 227.848 216.478Z" fill="#CCCCCC"/>
<path d="M263.794 225.178H218.589V225.899H263.794V225.178Z" fill="#425AC2"/>
<path d="M236.125 75.8565C235.402 78.9644 234.465 82.019 233.323 84.9986L234.503 82.2298L234.208 82.9015C232.728 85.6315 232.314 88.8128 233.044 91.8306C233.446 93.2979 234.134 94.6714 235.067 95.8727C236.001 97.0739 237.163 98.0792 238.486 98.831C239.809 99.5828 241.267 100.066 242.778 100.254C244.288 100.442 245.82 100.329 247.287 99.9242C248.746 99.5576 250.114 98.896 251.306 97.9801C252.499 97.0643 253.49 95.9137 254.22 94.5995C255.975 90.537 257.4 86.3402 258.482 82.0495C258.887 80.5822 258.998 79.0495 258.81 77.5391C258.622 76.0286 258.139 74.57 257.387 73.2464C256.635 71.9228 255.63 70.7602 254.428 69.825C253.227 68.8897 251.853 68.2002 250.385 67.7957C247.42 66.9788 244.252 67.3726 241.578 68.8904C238.904 70.4083 236.943 72.9258 236.125 75.8893V75.8565Z" fill="#FFC1C1"/>
<path d="M199.559 184.776C201.95 191.26 206.05 196.978 211.426 201.323C216.228 205.452 224.259 203.142 227.554 198.358C231.406 192.738 229.357 186.349 224.571 182.236C227.111 184.415 224.456 181.958 223.964 181.384C223.473 180.811 221.473 177.78 223.161 180.434C222.013 178.604 221.094 176.639 220.424 174.585C218.408 168.589 210.065 166.737 204.919 169.228C198.707 172.226 197.543 178.73 199.559 184.71V184.776Z" fill="#FFC1C1"/>
<path d="M225.21 140.277C225.025 144.397 224.476 148.493 223.571 152.516C222.583 157.638 222.478 162.891 223.26 168.048C224.211 174.29 231.078 178.239 236.995 176.977C239.98 176.301 242.584 174.489 244.255 171.926C245.925 169.363 246.532 166.25 245.944 163.247C245.731 161.789 245.698 161.609 245.813 162.576C245.813 161.757 245.813 160.937 245.813 160.085C245.961 158.016 246.24 155.959 246.649 153.925C247.538 149.899 248.087 145.805 248.288 141.686C248.433 138.629 247.379 135.636 245.349 133.344C243.319 131.052 240.475 129.642 237.421 129.415C231.373 129.055 225.21 133.953 225.145 140.277H225.21Z" fill="#FFC1C1"/>
<path d="M256.236 117.111C257.007 118.749 257.777 120.24 258.515 121.829C258.826 122.517 259.138 123.222 259.433 123.91C258.039 120.732 259.433 123.91 259.695 124.631C260.584 127.504 262.474 129.963 265.022 131.561C266.359 132.338 267.838 132.841 269.371 133.041C270.905 133.24 272.463 133.133 273.955 132.725C279.576 131.184 284.362 124.369 282.051 118.471C280.314 114.031 278.396 109.673 276.249 105.364C273.414 99.7113 265.579 98.1548 260.383 101.202C254.679 104.479 253.384 111.409 256.236 117.062V117.111Z" fill="#FFC1C1"/>
<path d="M262.023 149.305C261.204 150.583 260.384 151.828 259.401 153.024L261.22 150.681C260.565 151.512 259.893 152.331 259.204 153.139C257.09 155.351 255.88 158.273 255.811 161.331C255.811 164.405 257.032 167.352 259.205 169.527C261.377 171.702 264.325 172.926 267.399 172.931C268.925 172.949 270.439 172.657 271.848 172.071C273.257 171.485 274.532 170.618 275.595 169.523C277.935 166.834 280.088 163.988 282.036 161.003C283.588 158.35 284.022 155.19 283.243 152.217C282.464 149.245 280.535 146.703 277.881 145.152C275.227 143.601 272.066 143.167 269.092 143.946C266.118 144.725 263.575 146.652 262.023 149.305Z" fill="#FFC1C1"/>
<path d="M252.877 204.797C255.594 204.851 258.309 204.609 260.974 204.076L257.893 204.486C259.13 204.314 260.381 204.248 261.63 204.289C267.956 204.617 273.234 198.784 273.234 192.706C273.187 189.646 271.949 186.724 269.783 184.561C267.616 182.398 264.691 181.165 261.63 181.123C258.923 181.132 256.223 181.395 253.565 181.909L256.647 181.483C255.399 181.664 254.135 181.713 252.877 181.631C246.567 181.156 241.289 187.267 241.289 193.214C241.289 199.899 246.583 204.338 252.877 204.797Z" fill="#FFC1C1"/>
<path d="M210.344 104.168C210.347 104.425 210.274 104.677 210.133 104.892C209.993 105.107 209.792 105.275 209.556 105.376C209.319 105.476 209.059 105.504 208.806 105.456C208.554 105.408 208.322 105.286 208.139 105.106C207.956 104.925 207.831 104.695 207.78 104.443C207.729 104.192 207.753 103.931 207.851 103.693C207.948 103.456 208.114 103.253 208.328 103.11C208.541 102.967 208.792 102.89 209.049 102.89C209.389 102.89 209.716 103.024 209.959 103.264C210.201 103.503 210.339 103.828 210.344 104.168Z" fill="white"/>
<path d="M244.6 89.3738C244.6 89.6298 244.525 89.8801 244.382 90.0929C244.24 90.3058 244.038 90.4717 243.801 90.5696C243.565 90.6676 243.304 90.6932 243.053 90.6433C242.802 90.5933 242.571 90.4701 242.39 90.2891C242.209 90.108 242.086 89.8774 242.036 89.6263C241.986 89.3753 242.011 89.115 242.109 88.8785C242.207 88.642 242.373 88.4399 242.586 88.2976C242.799 88.1554 243.05 88.0795 243.306 88.0795C243.476 88.0773 243.646 88.1093 243.804 88.1736C243.962 88.2378 244.105 88.3331 244.226 88.4537C244.347 88.5743 244.442 88.7179 244.506 88.8759C244.571 89.034 244.603 89.2032 244.6 89.3738Z" fill="white"/>
<path d="M261.219 112.54C261.213 112.796 261.131 113.044 260.983 113.253C260.835 113.462 260.629 113.623 260.39 113.715C260.151 113.807 259.89 113.826 259.64 113.77C259.39 113.713 259.163 113.584 258.987 113.399C258.81 113.213 258.693 112.98 258.649 112.727C258.605 112.475 258.638 112.216 258.742 111.982C258.845 111.748 259.016 111.55 259.233 111.413C259.449 111.276 259.701 111.207 259.957 111.213C260.127 111.217 260.295 111.255 260.45 111.324C260.606 111.393 260.746 111.492 260.864 111.615C260.981 111.738 261.072 111.884 261.134 112.042C261.195 112.201 261.224 112.37 261.219 112.54Z" fill="white"/>
<path d="M244.386 147.257C244.389 147.515 244.315 147.767 244.174 147.982C244.033 148.198 243.831 148.366 243.594 148.466C243.357 148.566 243.095 148.593 242.842 148.544C242.59 148.494 242.358 148.371 242.175 148.189C241.993 148.007 241.87 147.775 241.82 147.522C241.771 147.269 241.798 147.008 241.898 146.771C241.998 146.534 242.167 146.332 242.382 146.191C242.597 146.05 242.85 145.976 243.107 145.979C243.446 145.979 243.772 146.114 244.011 146.354C244.251 146.593 244.386 146.918 244.386 147.257Z" fill="white"/>
<path d="M274.348 158.496C274.351 158.754 274.278 159.006 274.137 159.222C273.996 159.437 273.794 159.605 273.556 159.705C273.319 159.805 273.057 159.832 272.805 159.783C272.552 159.733 272.32 159.61 272.138 159.428C271.956 159.246 271.832 159.014 271.783 158.761C271.733 158.509 271.76 158.247 271.86 158.01C271.96 157.773 272.129 157.571 272.344 157.43C272.56 157.289 272.812 157.215 273.07 157.218C273.409 157.218 273.734 157.353 273.974 157.593C274.213 157.832 274.348 158.157 274.348 158.496Z" fill="white"/>
<path d="M266.399 193.345C266.403 193.602 266.329 193.854 266.188 194.07C266.047 194.285 265.845 194.454 265.608 194.554C265.37 194.653 265.109 194.68 264.856 194.631C264.603 194.582 264.371 194.458 264.189 194.276C264.007 194.094 263.883 193.862 263.834 193.609C263.784 193.357 263.812 193.095 263.912 192.858C264.012 192.621 264.18 192.419 264.396 192.278C264.611 192.137 264.864 192.063 265.121 192.067C265.46 192.067 265.785 192.201 266.025 192.441C266.265 192.681 266.399 193.006 266.399 193.345Z" fill="white"/>
<path d="M213.753 186.578C213.798 186.827 213.767 187.083 213.666 187.314C213.565 187.546 213.398 187.742 213.186 187.878C212.973 188.014 212.725 188.085 212.472 188.081C212.22 188.076 211.975 187.997 211.767 187.854C211.559 187.71 211.399 187.508 211.306 187.273C211.213 187.039 211.192 186.782 211.245 186.535C211.297 186.288 211.422 186.063 211.603 185.887C211.784 185.711 212.014 185.592 212.262 185.546C212.596 185.489 212.94 185.565 213.219 185.758C213.497 185.951 213.689 186.245 213.753 186.578Z" fill="white"/>
<path d="M48.1112 116.653H44.3743V198.162H48.1112V116.653Z" fill="#CCCCCC"/>
<path d="M31.2775 124.074H27.5405V195.999H31.2775V124.074Z" fill="#CCCCCC"/>
<path d="M65.8784 129.268H62.1414V201.192H65.8784V129.268Z" fill="#CCCCCC"/>
<path d="M75.9917 193.361H18.625C21.1848 198.038 24.8475 202.019 29.2952 204.961V267.219H65.3543V204.961C69.79 202.015 73.4411 198.034 75.9917 193.361Z" fill="#C4C4C4"/>
<path d="M93.1184 205.174H23.4589V205.894H93.1184V205.174Z" fill="#FFC1C1"/>
<path d="M69.5979 86.1785C63.0417 72.1541 42.275 70.1716 33.1127 87.8169C25.3272 102.775 6.88802 97.5161 1.64307 111.508C-7.71589 136.739 25.3437 146.422 39.3412 133.315C48.9951 124.271 61.3044 129.645 72.1221 138.23C89.5779 152.254 116.688 122.337 99.5433 108.313C86.2179 97.4178 77.662 103.463 69.5979 86.1785Z" fill="#FFC1C1"/>
<path d="M22.0985 176.24C19.0499 178.796 22.8853 185.628 30.5396 184.219C38.194 182.81 42.1277 179.206 37.899 175.307C33.6702 171.407 27.8843 171.391 22.0985 176.24Z" fill="#FFC1C1"/>
<path d="M43.6026 159.315C48.8311 149.747 56.8297 157.775 61.8124 160.216C71.8106 165.132 73.4496 158.693 78.7109 161.314C83.9723 163.935 81.8087 170.866 70.5157 172.783C60.5667 174.601 38.2101 169.096 43.6026 159.315Z" fill="#FFC1C1"/>
<path d="M237.863 9.40466H62.0748C53.4209 9.40466 46.4055 16.4172 46.4055 25.0675V148.748C46.4055 157.399 53.4209 164.411 62.0748 164.411H237.863C246.517 164.411 253.532 157.399 253.532 148.748V25.0675C253.532 16.4172 246.517 9.40466 237.863 9.40466Z" fill="#A4B8EA"/>
<path d="M193.773 33.7834H62.5015V38.0596H193.773V33.7834Z" fill="white"/>
<path d="M193.773 67.7957H62.5015V72.0719H193.773V67.7957Z" fill="white"/>
<path d="M193.773 101.792H62.5015V106.068H193.773V101.792Z" fill="white"/>
<path d="M193.773 135.788H62.5015V140.064H193.773V135.788Z" fill="white"/>
<path d="M221.621 25.4932H208.164C206.227 25.4932 204.657 27.0629 204.657 28.9993V42.4503C204.657 44.3867 206.227 45.9565 208.164 45.9565H221.621C223.558 45.9565 225.129 44.3867 225.129 42.4503V28.9993C225.129 27.0629 223.558 25.4932 221.621 25.4932Z" fill="white"/>
<path d="M221.621 59.2438H208.164C206.227 59.2438 204.657 60.8136 204.657 62.75V76.201C204.657 78.1374 206.227 79.7071 208.164 79.7071H221.621C223.558 79.7071 225.129 78.1374 225.129 76.201V62.75C225.129 60.8136 223.558 59.2438 221.621 59.2438Z" fill="white"/>
<path d="M221.621 93.0105H208.164C206.227 93.0105 204.657 94.5802 204.657 96.5166V109.968C204.657 111.904 206.227 113.474 208.164 113.474H221.621C223.558 113.474 225.129 111.904 225.129 109.968V96.5166C225.129 94.5802 223.558 93.0105 221.621 93.0105Z" fill="white"/>
<path d="M221.621 126.777H208.164C206.227 126.777 204.657 128.347 204.657 130.283V143.734C204.657 145.671 206.227 147.24 208.164 147.24H221.621C223.558 147.24 225.129 145.671 225.129 143.734V130.283C225.129 128.347 223.558 126.777 221.621 126.777Z" fill="white"/>
<path d="M213.311 98.5065L203.831 107.983L207.343 111.493L216.823 102.017L213.311 98.5065Z" fill="#FE958E"/>
<path d="M206.016 116.423C208.212 115.801 211.966 112.245 211.376 110.525C210.786 108.805 209.409 103.971 206.18 105.61L200.41 109.575L203.23 117.16L206.016 116.423Z" fill="#FFB3B6"/>
<path d="M106.706 160.823H153.026L158.074 214.545L151.78 259.732H133.275L140.831 219.215C140.831 219.215 134.603 192.165 133.718 182.482H127.588L124.309 219.936L108.509 259.437H89.4961L106.018 216.692C106.018 216.692 106.673 173.602 106.788 167.213C106.647 165.086 106.62 162.953 106.706 160.823Z" fill="#FFC1C1"/>
<path d="M106.707 160.823H153.027L158.812 99.3345C159.321 94.3211 154.469 90.0121 148.306 90.0121H111.428C105.248 90.0121 100.413 94.3211 100.921 99.3345L106.707 160.823Z" fill="#425AC2"/>
<path d="M130.096 96.4679C121.901 96.4679 121.901 90.881 121.901 89.554V80.5429C121.901 78.4785 124.966 78.6588 126.818 78.6588H132.702C134.522 78.6588 137.619 80.2971 137.619 82.3779V89.6195C137.602 90.5716 137.39 91.5101 136.997 92.3775C136.605 93.245 136.039 94.0231 135.334 94.6642C134.63 95.3054 133.802 95.7961 132.901 96.1062C132.001 96.4163 131.046 96.5394 130.096 96.4679Z" fill="#E98896"/>
<path d="M142.683 78.6419C140.323 86.6208 133.652 85.4084 125.67 83.0491C121.933 81.8355 118.818 79.2121 116.987 75.7373C115.157 72.2625 114.755 68.2107 115.868 64.4443C116.981 60.6779 119.52 57.4944 122.946 55.5714C126.372 53.6484 130.413 53.1378 134.209 54.1482C142.191 56.5075 145.043 70.663 142.683 78.6419Z" fill="#FFB3B6"/>
<path d="M159.026 97.3522L171.368 121.928L200.116 109.001C200.116 108.198 206.919 115.047 205.87 116.898C204.23 119.896 184.3 131.643 173.761 139.966C167.86 144.619 153.404 125.467 152.584 124.091C151.256 121.895 149.47 108.28 149.306 100.695C149.265 99.8465 149.554 99.0157 150.114 98.3769C150.673 97.7382 151.459 97.3415 152.305 97.2703L155.043 92.3552C156.485 92.1422 158.501 95.9269 159.026 97.3522Z" fill="#425AC2"/>
<path d="M104.739 92.0273C104.739 92.0273 83.3167 114.866 75.7771 122.059C71.5975 126.024 75.7771 129.005 78.1537 131.889C84.7099 140.081 106.132 154.826 106.132 154.826L104.952 142.325L92.0528 127.252C92.0528 127.252 110.197 113.244 110.804 112.229C112.443 109.476 111.066 97.3684 111.066 97.3684L104.739 92.0273Z" fill="#425AC2"/>
<path d="M147.24 259.617H138.242V266.498H156.484C157.697 266.498 158.124 263.795 157.042 263.221L147.24 259.617Z" fill="#FE958E"/>
<path d="M104.477 259.617H95.4954V266.498H113.722C114.935 266.498 115.361 263.795 114.295 263.221L104.477 259.617Z" fill="#FE958E"/>
<path d="M155.763 107.723H155.042V141.293H155.763V107.723Z" fill="#FC6262"/>
<path d="M103.207 109.256L102.487 109.302L104.594 142.412L105.314 142.366L103.207 109.256Z" fill="#FC6262"/>
<path d="M213.294 98.4992L216.818 102.022L218.244 98.3518L217.293 97.3032L213.294 98.4992Z" fill="#FEE2E3"/>
<path d="M217.342 97.2872L218.292 98.3521C218.292 98.3521 219.636 97.0742 219.112 96.5663C218.587 96.0584 217.342 97.2872 217.342 97.2872Z" fill="#0E24A5"/>
<mask id="mask0_3_1041" style="mask-type:alpha" maskUnits="userSpaceOnUse" x="89" y="160" width="70" height="100">
<path d="M106.706 160.823H153.026L158.074 214.545L151.78 259.732H133.275L140.831 219.215C140.831 219.215 134.603 192.165 133.718 182.482H127.588L124.309 219.936L108.509 259.437H89.4961L106.018 216.692C106.018 216.692 106.673 173.602 106.788 167.213C106.647 165.086 106.62 162.953 106.706 160.823Z" fill="#FFC1C1"/>
</mask>
<g mask="url(#mask0_3_1041)">
<path d="M164.598 164.034H107.231V165.673H164.598V164.034Z" fill="#03053F"/>
<path d="M164.532 170.227H80.9407V172.062H164.532V170.227Z" fill="#03053F"/>
<path d="M164.532 176.666H80.9407V178.501H164.532V176.666Z" fill="#03053F"/>
<path d="M164.532 183.105H80.9407V184.94H164.532V183.105Z" fill="#03053F"/>
<path d="M164.532 189.544H80.9407V191.379H164.532V189.544Z" fill="#03053F"/>
<path d="M164.532 195.983H80.9407V197.818H164.532V195.983Z" fill="#03053F"/>
<path d="M164.532 202.421H80.9407V204.256H164.532V202.421Z" fill="#03053F"/>
<path d="M164.532 208.86H80.9407V210.695H164.532V208.86Z" fill="#03053F"/>
<path d="M164.532 215.299H80.9407V217.134H164.532V215.299Z" fill="#03053F"/>
<path d="M164.532 221.738H80.9407V223.573H164.532V221.738Z" fill="#03053F"/>
<path d="M164.532 228.177H80.9407V230.012H164.532V228.177Z" fill="#03053F"/>
<path d="M164.532 234.615H80.9407V236.45H164.532V234.615Z" fill="#03053F"/>
<path d="M164.532 241.054H80.9407V242.889H164.532V241.054Z" fill="#03053F"/>
<path d="M164.532 247.493H80.9407V249.328H164.532V247.493Z" fill="#03053F"/>
<path d="M164.532 253.932H80.9407V255.767H164.532V253.932Z" fill="#03053F"/>
</g>
<path d="M130.162 72.7929C132.686 71.7116 128.523 67.7467 131.801 65.4858C136.472 62.209 140.438 60.5707 141.389 54.5906C142.454 48.0371 135.161 43.8265 133.964 43.8265C132.768 43.8265 136.472 45.7434 132.325 48.6105C128.9 51.0189 113.886 54.951 113.05 64.896C112.214 74.8409 115.197 78.003 119.033 79.9854C122.868 81.9678 117.836 75.9058 120.95 72.072C124.064 68.2382 128.49 73.5302 130.162 72.7929Z" fill="#FE958E"/>
<path d="M208.514 32.0284L206.834 33.7083L214.75 41.6208L216.43 39.941L208.514 32.0284Z" fill="#FE958E"/>
<path d="M221.125 32.1013L213.209 40.0138L214.89 41.6936L222.805 33.7811L221.125 32.1013Z" fill="#FE958E"/>
<path d="M208.524 65.6079L206.843 67.2877L214.759 75.2003L216.44 73.5205L208.524 65.6079Z" fill="#FE958E"/>
<path d="M221.106 65.6695L213.19 73.582L214.87 75.2619L222.786 67.3493L221.106 65.6695Z" fill="#FE958E"/>
<path d="M77.352 19.1526C77.3306 20.0291 76.9671 20.8625 76.3393 21.4747C75.7115 22.087 74.869 22.4296 73.9919 22.4293C73.1225 22.4293 72.2887 22.0841 71.674 21.4696C71.0592 20.8551 70.7138 20.0216 70.7138 19.1526V3.35867C70.7029 2.92151 70.7796 2.4866 70.9395 2.07954C71.0993 1.67248 71.339 1.30152 71.6445 0.988516C71.95 0.675512 72.315 0.426798 72.7182 0.257027C73.1213 0.0872564 73.5544 -0.000136515 73.9919 1.60063e-07C74.883 1.60063e-07 75.7377 0.353862 76.3678 0.983735C76.998 1.61361 77.352 2.46789 77.352 3.35867V19.1526Z" fill="#425AC2"/>
<path d="M233.536 19.1526C233.515 20.0151 233.163 20.8365 232.553 21.4466C231.942 22.0566 231.12 22.4086 230.258 22.4293C229.38 22.4296 228.538 22.087 227.91 21.4747C227.282 20.8625 226.919 20.0291 226.898 19.1526V3.35867C226.898 2.46789 227.252 1.61361 227.882 0.983734C228.512 0.353862 229.366 0 230.258 0C231.134 0.0213844 231.968 0.384665 232.581 1.01223C233.193 1.6398 233.536 2.4819 233.536 3.35867V19.1526Z" fill="#425AC2"/>
</svg>
