<svg width="254" height="277" viewBox="0 0 254 277" fill="none" xmlns="http://www.w3.org/2000/svg">
<path d="M217.985 248.745C215.752 248.295 209.706 243.589 204.79 230.59C201.971 223.156 194.046 184.854 204.79 182.167C215.534 179.48 213.518 198.726 213.518 216.459C213.518 227.262 217.985 248.745 217.985 248.745Z" fill="#0E24A5"/>
<path d="M222.914 250.56C217.263 250.192 218.434 192.957 217.984 179.507C217.535 166.058 214.852 115.848 222.464 107.773C230.076 99.6978 237.906 106.873 238.573 117.321C238.9 122.273 237.212 158.242 236.34 168.554C235.469 178.866 234.325 202.178 233.426 216.964C232.527 231.75 229.627 250.983 222.914 250.56Z" fill="#0E24A5"/>
<path d="M233.427 251.214C233.427 251.214 245.969 226.43 249.1 207.279C254.697 172.973 255.814 139.582 248.202 140.018C240.59 140.455 240.032 174.119 239.705 188.442C238.806 225.652 230.077 248.964 230.077 248.964L233.427 251.214Z" fill="#0E24A5"/>
<path d="M232.352 250.178L231.834 249.987C231.834 249.864 236.3 237.588 239.215 229.376C244.947 213.239 245.901 191.783 245.914 191.565H246.459C246.459 191.783 245.506 213.308 239.732 229.526C236.818 237.778 232.392 250.055 232.352 250.178Z" fill="#FFC1C1"/>
<path d="M224.752 246.727H224.208C224.208 239.075 225.569 216.718 225.569 216.445H226.128C226.087 216.704 224.752 239.088 224.752 246.727Z" fill="#FFC1C1"/>
<path d="M215.833 248.514C212.949 241.365 210.48 234.056 208.439 226.621C206.811 219.994 206.128 213.17 206.41 206.352H206.969C206.678 213.11 207.352 219.876 208.97 226.444C211.006 233.854 213.466 241.141 216.337 248.268L215.833 248.514Z" fill="#FFC1C1"/>
<path d="M227.844 216.909C227.847 217.244 227.75 217.572 227.566 217.852C227.382 218.132 227.119 218.351 226.811 218.481C226.503 218.611 226.163 218.647 225.835 218.583C225.506 218.519 225.204 218.359 224.966 218.123C224.729 217.887 224.567 217.586 224.5 217.258C224.434 216.929 224.467 216.588 224.594 216.278C224.722 215.969 224.938 215.704 225.216 215.517C225.494 215.331 225.821 215.231 226.156 215.231C226.601 215.231 227.028 215.408 227.345 215.722C227.661 216.036 227.84 216.463 227.844 216.909Z" fill="#425AC2"/>
<path d="M208.371 206.597C208.373 206.932 208.276 207.261 208.092 207.542C207.907 207.822 207.644 208.041 207.334 208.17C207.025 208.3 206.685 208.335 206.356 208.27C206.027 208.205 205.725 208.044 205.488 207.806C205.251 207.569 205.09 207.266 205.025 206.937C204.961 206.608 204.995 206.266 205.125 205.957C205.254 205.647 205.473 205.383 205.752 205.198C206.032 205.014 206.361 204.916 206.696 204.919C206.916 204.919 207.133 204.962 207.337 205.047C207.54 205.131 207.724 205.255 207.88 205.41C208.035 205.566 208.159 205.751 208.243 205.955C208.327 206.158 208.371 206.376 208.371 206.597Z" fill="#425AC2"/>
<path d="M247.861 191.579C247.861 191.911 247.763 192.235 247.579 192.511C247.395 192.787 247.133 193.002 246.827 193.129C246.521 193.256 246.184 193.289 245.859 193.225C245.534 193.16 245.236 193 245.002 192.765C244.767 192.531 244.608 192.232 244.543 191.906C244.479 191.581 244.512 191.244 244.638 190.937C244.765 190.63 244.98 190.368 245.255 190.184C245.531 190 245.855 189.901 246.186 189.901C246.63 189.901 247.056 190.078 247.37 190.393C247.684 190.707 247.861 191.134 247.861 191.579Z" fill="#425AC2"/>
<path d="M115.476 56.253L106.08 60.5633C105.812 60.6842 105.518 60.7326 105.225 60.7035C104.933 60.6744 104.654 60.5689 104.415 60.3976C104.177 60.2263 103.987 59.9952 103.866 59.7274C103.745 59.4596 103.696 59.1646 103.724 58.8719L104.691 48.5871C104.717 48.2929 104.821 48.0109 104.991 47.7697C105.162 47.5284 105.392 47.3365 105.661 47.2133C105.929 47.0901 106.224 47.0401 106.518 47.0681C106.812 47.0962 107.093 47.2014 107.333 47.3731L115.748 53.3612C115.987 53.5318 116.178 53.7625 116.3 54.0301C116.422 54.2977 116.472 54.5928 116.444 54.8858C116.417 55.1788 116.313 55.4593 116.143 55.6993C115.973 55.9393 115.743 56.1302 115.476 56.253Z" fill="#425AC2"/>
<path d="M81.9768 70.8483L91.9718 78.8006C92.259 79.0242 92.4819 79.3201 92.6177 79.6582C92.7535 79.9962 92.7974 80.3643 92.7448 80.7249C92.6921 81.0854 92.545 81.4256 92.3183 81.7106C92.0916 81.9955 91.7934 82.2152 91.4543 82.3471L79.5666 87.053C79.2284 87.1864 78.8612 87.2282 78.5018 87.1743C78.1424 87.1204 77.8035 86.9726 77.5192 86.7459C77.2348 86.5191 77.0151 86.2214 76.8821 85.8827C76.7491 85.5439 76.7075 85.176 76.7615 84.816L78.6406 72.1577C78.6952 71.7982 78.8433 71.4594 79.0699 71.1754C79.2965 70.8913 79.5938 70.6719 79.9317 70.5393C80.2697 70.4066 80.6366 70.3653 80.9955 70.4196C81.3545 70.4738 81.6929 70.6216 81.9768 70.8483Z" fill="#425AC2"/>
<path d="M95.4858 58.9403L96.4117 66.6471C96.4511 66.8713 96.4288 67.102 96.3473 67.3145C96.2659 67.527 96.1282 67.7133 95.9492 67.8534C95.7701 67.9936 95.5563 68.0823 95.3308 68.1101C95.1052 68.1378 94.8764 68.1037 94.6687 68.0112L87.5333 64.9557C87.3288 64.87 87.1506 64.7315 87.017 64.5542C86.8833 64.377 86.7991 64.1674 86.7728 63.9469C86.7465 63.7263 86.7791 63.5027 86.8672 63.2989C86.9554 63.0951 87.096 62.9184 87.2746 62.7869L93.484 58.1355C93.6567 58.0026 93.8609 57.9171 94.0766 57.8873C94.2923 57.8576 94.512 57.8847 94.7141 57.9659C94.9161 58.0472 95.0936 58.1797 95.2289 58.3506C95.3642 58.5215 95.4528 58.7247 95.4858 58.9403Z" fill="#425AC2"/>
<path d="M109.443 80.6146L100.469 75.4995C100.215 75.3522 100.003 75.1404 99.8566 74.8854C99.7096 74.6304 99.6323 74.3412 99.6323 74.0468C99.6323 73.7524 99.7096 73.4632 99.8566 73.2082C100.003 72.9532 100.215 72.7414 100.469 72.5941L109.375 67.3699C109.627 67.2173 109.916 67.1348 110.211 67.1309C110.506 67.127 110.796 67.2018 111.053 67.3477C111.309 67.4935 111.522 67.705 111.67 67.9607C111.818 68.2163 111.895 68.5067 111.894 68.8021L111.962 79.1415C111.966 79.4387 111.892 79.7317 111.746 79.9906C111.6 80.2494 111.388 80.4648 111.132 80.6146C110.876 80.7645 110.584 80.8435 110.287 80.8435C109.991 80.8435 109.699 80.7645 109.443 80.6146Z" fill="#425AC2"/>
<path d="M102.049 96.3014L100.891 94.2144C96.6019 86.4667 92.5439 79.21 98.6035 69.198C104.663 59.186 108.953 53.4434 108.993 53.3752L109.443 53.7025C109.443 53.7707 105.113 59.5815 99.0801 69.4844C93.1839 79.1691 97.1601 86.3439 101.381 93.9552C101.763 94.6372 102.144 95.3329 102.525 96.0422L102.049 96.3014Z" fill="#0E24A5"/>
<path d="M92.979 62.7712L92.5206 63.066L97.7217 71.1813L98.18 70.8865L92.979 62.7712Z" fill="#0E24A5"/>
<path d="M86.4027 79.3953L86.3158 79.9339L95.8198 81.4724L95.9067 80.9338L86.4027 79.3953Z" fill="#0E24A5"/>
<path d="M106.201 73.5925L96.5885 74.1208L96.6183 74.6656L106.231 74.1373L106.201 73.5925Z" fill="#0E24A5"/>
<path d="M85.5724 226.771L95.3086 225.53C95.5859 225.494 95.8677 225.532 96.1258 225.64C96.3838 225.747 96.609 225.921 96.7787 226.144C96.9484 226.366 97.0567 226.63 97.0926 226.907C97.1286 227.185 97.091 227.467 96.9835 227.726L93.1844 236.797C93.0743 237.052 92.8997 237.273 92.6779 237.44C92.4562 237.606 92.1949 237.712 91.9199 237.746C91.6448 237.781 91.3656 237.743 91.1098 237.636C90.8539 237.529 90.6303 237.358 90.4609 237.138L84.5239 229.322C84.3545 229.1 84.2462 228.838 84.2097 228.561C84.1733 228.284 84.21 228.003 84.3161 227.745C84.4222 227.486 84.594 227.261 84.8145 227.09C85.035 226.919 85.2963 226.809 85.5724 226.771Z" fill="#425AC2"/>
<path d="M120.105 223.034L113.297 212.981C113.105 212.704 112.987 212.382 112.955 212.046C112.923 211.709 112.978 211.371 113.115 211.062C113.252 210.754 113.466 210.486 113.736 210.285C114.007 210.083 114.324 209.955 114.659 209.912L126.751 209.025C127.095 209.001 127.439 209.068 127.75 209.219C128.06 209.369 128.326 209.599 128.52 209.885C128.714 210.17 128.83 210.502 128.857 210.847C128.883 211.191 128.819 211.537 128.671 211.849L123.387 222.761C123.23 223.047 123.005 223.291 122.731 223.468C122.458 223.646 122.144 223.754 121.819 223.781C121.494 223.808 121.168 223.754 120.869 223.623C120.569 223.493 120.307 223.29 120.105 223.034Z" fill="#425AC2"/>
<path d="M104.459 230.017L105.821 222.761C105.856 222.553 105.946 222.358 106.082 222.196C106.217 222.035 106.393 221.912 106.591 221.841C106.79 221.77 107.003 221.754 107.21 221.793C107.417 221.832 107.61 221.926 107.768 222.065L113.379 226.853C113.539 226.99 113.66 227.167 113.731 227.366C113.801 227.565 113.818 227.779 113.779 227.986C113.74 228.194 113.648 228.387 113.51 228.548C113.373 228.708 113.196 228.829 112.997 228.899L106.053 231.368C105.853 231.442 105.638 231.461 105.429 231.424C105.22 231.388 105.025 231.296 104.862 231.158C104.7 231.021 104.578 230.843 104.507 230.643C104.436 230.442 104.42 230.226 104.459 230.017Z" fill="#425AC2"/>
<path d="M97.9368 206.392L104.623 213.581C104.815 213.784 104.95 214.034 105.014 214.307C105.078 214.579 105.068 214.864 104.987 215.131C104.905 215.399 104.754 215.64 104.549 215.83C104.344 216.02 104.092 216.152 103.819 216.213L94.2874 218.423C94.0154 218.485 93.7318 218.475 93.4651 218.393C93.1985 218.311 92.958 218.16 92.7677 217.955C92.5774 217.751 92.4441 217.5 92.381 217.228C92.3179 216.956 92.3273 216.672 92.4082 216.404L95.2814 207.006C95.3637 206.743 95.5134 206.505 95.7155 206.318C95.9176 206.131 96.1652 205.999 96.4336 205.937C96.702 205.875 96.9819 205.885 97.2456 205.964C97.5093 206.044 97.7475 206.192 97.9368 206.392Z" fill="#425AC2"/>
<path d="M90.6369 231.232L90.3237 230.782C90.3237 230.782 95.9067 226.69 104.186 219.419C112.465 212.149 110.681 204.674 109.006 196.585L108.557 194.362L109.102 194.266L109.551 196.476C111.253 204.66 112.86 212.517 104.54 219.828C96.2199 227.14 90.705 231.191 90.6369 231.232Z" fill="#0E24A5"/>
<path d="M105.911 218.309L105.373 218.457L107.795 227.297L108.334 227.149L105.911 218.309Z" fill="#0E24A5"/>
<path d="M110.525 209.468L110.281 209.956L118.469 214.05L118.712 213.562L110.525 209.468Z" fill="#0E24A5"/>
<path d="M98.9967 213.179L98.8624 213.708L107.731 215.967L107.865 215.439L98.9967 213.179Z" fill="#0E24A5"/>
<path d="M211.053 243.589H237.008L232.487 276.927H215.574L211.053 243.589Z" fill="#FFC1C1"/>
<path d="M80.9551 178.975L93.6054 235.16L83.556 271.102H75.2496L79.6888 235.064C79.6888 235.064 72.9483 217.836 69.5712 208.766L63.8793 210.02L65.7721 236.319L59.1133 271.102H50.8068L51.8554 236.646C51.8554 236.646 42.8817 193.27 43.0042 187.814C42.7727 186.955 80.9551 178.975 80.9551 178.975Z" fill="#FE958E"/>
<path d="M84.1288 187.214L44.8979 194.812L19.0253 166.167C18.2908 165.561 17.6913 164.807 17.2656 163.954C16.8399 163.101 16.5974 162.169 16.5538 161.216C16.5102 160.264 16.6663 159.313 17.0123 158.425C17.3583 157.536 17.8863 156.731 18.5624 156.059L35.4748 139.023C36.1403 138.341 36.9408 137.807 37.8248 137.455C38.7089 137.103 39.6569 136.94 40.6076 136.978C41.5583 137.015 42.4907 137.251 43.3446 137.672C44.1985 138.092 44.9549 138.687 45.5651 139.418L84.1288 187.214Z" fill="#0E24A5"/>
<path d="M30.3953 148.135L27.0863 151.449C26.8119 151.696 26.4917 151.885 26.144 152.008C25.7963 152.13 25.4279 152.183 25.0599 152.163C24.6919 152.142 24.3315 152.05 23.9993 151.89C23.6671 151.73 23.3696 151.506 23.1238 151.231L19.0386 147.139C18.4842 146.646 18.1472 145.953 18.1013 145.212C18.0553 144.47 18.3042 143.741 18.7935 143.183L22.0888 139.855C22.6446 139.361 23.3729 139.106 24.115 139.147C24.8571 139.188 25.5531 139.521 26.0514 140.073L30.1366 144.165C30.6938 144.659 31.0337 145.353 31.0822 146.097C31.1306 146.84 30.8837 147.573 30.3953 148.135Z" fill="#E98896"/>
<path d="M16.8741 158.965C15.8664 161.489 17.8681 194.089 19.7201 196.462C23.4239 201.168 52.9595 203.187 52.9595 203.187V195.999L31.1721 188.265L27.9857 161.189C27.9857 161.189 18.3992 155.159 16.8741 158.965Z" fill="#0E24A5"/>
<path d="M27.6988 134.208C30.8852 140.032 26.446 143.129 20.6315 146.307C19.2461 147.101 17.7166 147.61 16.1325 147.805C14.5483 148 12.9413 147.876 11.4053 147.442C9.86935 147.007 8.43518 146.271 7.18668 145.275C5.93817 144.279 4.90036 143.044 4.13388 141.641C3.3674 140.239 2.88765 138.698 2.72263 137.107C2.55762 135.517 2.71065 133.91 3.17281 132.38C3.63497 130.85 4.39695 129.427 5.41427 128.195C6.43158 126.963 7.68385 125.947 9.0978 125.205C14.9123 122.013 24.5124 128.37 27.6988 134.208Z" fill="#FFB3B6"/>
<path d="M6.72874 137.072C6.72874 137.072 20.4957 126.16 22.7016 120.99C24.7578 116.066 23.4914 112.301 18.0854 112.233C11.1407 112.151 7.42321 119.49 5.96618 127.756C5.47596 130.525 6.72874 137.072 6.72874 137.072Z" fill="#7F4D4E"/>
<path d="M8.73102 134.003C8.73102 134.003 11.7404 136.991 11.3319 137.413C10.6082 137.773 10.0072 138.339 9.6049 139.041C9.20256 139.743 9.01692 140.548 9.07144 141.355C9.38464 143.947 12.0672 144.084 13.7285 143.101C15.3898 142.119 17.9771 146.511 14.1506 149.103C10.3242 151.695 1.63649 145.311 0.383714 140.755C-0.869061 136.199 1.17354 127.701 3.22973 126.037C5.28591 124.373 10.6783 127.879 10.6783 127.879L8.73102 134.003Z" fill="#7F4D4E"/>
<path d="M32.4655 132.434C33.6396 133.612 34.439 135.111 34.7625 136.744C35.086 138.376 34.9192 140.068 34.283 141.605C33.6469 143.142 32.57 144.456 31.1885 145.381C29.807 146.305 28.1829 146.798 26.5216 146.798C24.8602 146.798 23.2362 146.305 21.8547 145.381C20.4732 144.456 19.3963 143.142 18.7602 141.605C18.124 140.068 17.9571 138.376 18.2806 136.744C18.6042 135.111 19.4035 133.612 20.5777 132.434C21.358 131.652 22.2846 131.031 23.3045 130.608C24.3243 130.184 25.4175 129.966 26.5216 129.966C27.6256 129.966 28.7188 130.184 29.7387 130.608C30.7586 131.031 31.6852 131.652 32.4655 132.434Z" fill="#7F4D4E"/>
<path d="M23.9726 133.511L21.4857 136.016C20.9766 136.529 20.979 137.358 21.4909 137.868L21.8964 138.272C22.4084 138.782 23.2361 138.779 23.7451 138.266L26.232 135.761C26.7411 135.249 26.7388 134.419 26.2269 133.91L25.8213 133.506C25.3094 132.996 24.4817 132.998 23.9726 133.511Z" fill="#FFB3B6"/>
<path d="M98.1676 274.635L95.131 273.298L128.547 197.144L131.584 198.468L98.1676 274.635Z" fill="#CCCCCC"/>
<path d="M99.5302 273.748C99.5408 274.352 99.3724 274.946 99.0462 275.454C98.72 275.963 98.2507 276.363 97.6976 276.604C97.1445 276.845 96.5324 276.916 95.9387 276.809C95.3451 276.702 94.7965 276.421 94.3624 276.001C93.9283 275.581 93.6282 275.042 93.4999 274.452C93.3717 273.861 93.4211 273.246 93.6419 272.684C93.8627 272.121 94.245 271.637 94.7405 271.293C95.2359 270.948 95.8223 270.758 96.4254 270.747C97.2334 270.736 98.013 271.045 98.5945 271.608C99.176 272.17 99.5123 272.939 99.5302 273.748Z" fill="#FFC1C1"/>
<path d="M170.025 274.635L173.061 273.299L139.373 196.517L136.336 197.854L170.025 274.635Z" fill="#CCCCCC"/>
<path d="M168.664 273.749C168.653 274.353 168.822 274.947 169.148 275.455C169.474 275.963 169.943 276.363 170.497 276.604C171.05 276.846 171.662 276.917 172.255 276.81C172.849 276.702 173.398 276.421 173.832 276.002C174.266 275.582 174.566 275.043 174.694 274.452C174.822 273.862 174.773 273.247 174.552 272.684C174.331 272.122 173.949 271.638 173.454 271.293C172.958 270.948 172.372 270.759 171.769 270.748C170.962 270.74 170.184 271.051 169.603 271.612C169.023 272.173 168.685 272.941 168.664 273.749Z" fill="#FFC1C1"/>
<path d="M125.375 83.5198C125.96 77.3407 130.958 75.5674 133.014 72.9212C135.07 70.275 135.56 62.4181 138.011 58.0941C140.626 53.47 144.82 46.5135 156.422 47.7957C165.736 48.8187 168.282 56.1299 168.582 61.7361C168.881 67.3423 173.865 72.6484 177.392 74.3944C180.919 76.1403 182.689 82.5785 182.389 85.5794C182.09 88.5803 125.375 83.5198 125.375 83.5198Z" fill="#0E24A5"/>
<path d="M139.236 119.435H170.488L166.185 103.476L174.355 77.9137C174.695 74.5308 171.427 71.6118 167.274 71.6118H142.409C138.324 71.6118 134.988 74.5308 135.342 77.9137L144.193 103.476L139.236 119.435Z" fill="#FE958E"/>
<path d="M139.169 84.1478C136.636 83.8613 132.878 79.2509 127.349 69.4844C121.82 59.7179 121.344 57.8219 121.439 56.417C121.535 55.012 125.524 35.2744 125.524 35.2744H131.529L129.746 56.7034C129.746 56.7034 137.126 68.8297 141.824 71.7078C144.439 73.3719 139.169 84.1478 139.169 84.1478Z" fill="#FE958E"/>
<path d="M170.176 84.1478C172.708 83.8613 176.453 79.2509 181.995 69.4844C187.537 59.7179 188 57.8219 187.905 56.417C187.81 55.012 183.82 35.2744 183.82 35.2744H177.815L179.599 56.7034C179.599 56.7034 172.191 68.3795 168.228 71.8715C165.954 73.8902 170.176 84.1478 170.176 84.1478Z" fill="#FE958E"/>
<path d="M154.706 79.0462C161.624 79.0462 167.233 73.4278 167.233 66.4971C167.233 59.5664 161.624 53.948 154.706 53.948C147.787 53.948 142.178 59.5664 142.178 66.4971C142.178 73.4278 147.787 79.0462 154.706 79.0462Z" fill="#E98896"/>
<path d="M218.23 82.02H49.963C43.3224 82.02 37.9391 87.4124 37.9391 94.0644V189.11C37.9391 195.762 43.3224 201.155 49.963 201.155H218.23C224.87 201.155 230.254 195.762 230.254 189.11V94.0644C230.254 87.4124 224.87 82.02 218.23 82.02Z" fill="#FEE2E3"/>
<path d="M69.7084 92.141H53.0274C50.6359 92.141 48.6971 94.083 48.6971 96.4786V113.188C48.6971 115.584 50.6359 117.526 53.0274 117.526H69.7084C72.0999 117.526 74.0386 115.584 74.0386 113.188V96.4786C74.0386 94.083 72.0999 92.141 69.7084 92.141Z" fill="#FFC1C1"/>
<path d="M106.392 92.141H89.7112C87.3197 92.141 85.381 94.083 85.381 96.4786V113.188C85.381 115.584 87.3197 117.526 89.7112 117.526H106.392C108.784 117.526 110.722 115.584 110.722 113.188V96.4786C110.722 94.083 108.784 92.141 106.392 92.141Z" fill="#FFC1C1"/>
<path d="M143.064 92.141H126.383C123.991 92.141 122.053 94.083 122.053 96.4786V113.188C122.053 115.584 123.991 117.526 126.383 117.526H143.064C145.456 117.526 147.394 115.584 147.394 113.188V96.4786C147.394 94.083 145.456 92.141 143.064 92.141Z" fill="#FFC1C1"/>
<path d="M179.748 92.141H163.067C160.675 92.141 158.737 94.083 158.737 96.4786V113.188C158.737 115.584 160.675 117.526 163.067 117.526H179.748C182.139 117.526 184.078 115.584 184.078 113.188V96.4786C184.078 94.083 182.139 92.141 179.748 92.141Z" fill="#FFC1C1"/>
<path d="M216.433 92.141H199.752C197.36 92.141 195.422 94.083 195.422 96.4786V113.188C195.422 115.584 197.36 117.526 199.752 117.526H216.433C218.824 117.526 220.763 115.584 220.763 113.188V96.4786C220.763 94.083 218.824 92.141 216.433 92.141Z" fill="#FFC1C1"/>
<path d="M69.7084 128.261H53.0274C50.6359 128.261 48.6971 130.203 48.6971 132.598V149.308C48.6971 151.703 50.6359 153.645 53.0274 153.645H69.7084C72.0999 153.645 74.0386 151.703 74.0386 149.308V132.598C74.0386 130.203 72.0999 128.261 69.7084 128.261Z" fill="#FFC1C1"/>
<path d="M106.392 128.261H89.7112C87.3197 128.261 85.381 130.203 85.381 132.598V149.308C85.381 151.703 87.3197 153.645 89.7112 153.645H106.392C108.784 153.645 110.722 151.703 110.722 149.308V132.598C110.722 130.203 108.784 128.261 106.392 128.261Z" fill="#FFC1C1"/>
<path d="M143.064 128.261H126.383C123.991 128.261 122.053 130.203 122.053 132.598V149.308C122.053 151.703 123.991 153.645 126.383 153.645H143.064C145.456 153.645 147.394 151.703 147.394 149.308V132.598C147.394 130.203 145.456 128.261 143.064 128.261Z" fill="#FFC1C1"/>
<path d="M216.433 128.261H199.752C197.36 128.261 195.422 130.203 195.422 132.598V149.308C195.422 151.703 197.36 153.645 199.752 153.645H216.433C218.824 153.645 220.763 151.703 220.763 149.308V132.598C220.763 130.203 218.824 128.261 216.433 128.261Z" fill="#FFC1C1"/>
<path d="M69.7084 164.38H53.0274C50.6359 164.38 48.6971 166.322 48.6971 168.718V185.427C48.6971 187.823 50.6359 189.765 53.0274 189.765H69.7084C72.0999 189.765 74.0386 187.823 74.0386 185.427V168.718C74.0386 166.322 72.0999 164.38 69.7084 164.38Z" fill="#FFC1C1"/>
<path d="M106.392 164.38H89.7112C87.3197 164.38 85.381 166.322 85.381 168.718V185.427C85.381 187.823 87.3197 189.765 89.7112 189.765H106.392C108.784 189.765 110.722 187.823 110.722 185.427V168.718C110.722 166.322 108.784 164.38 106.392 164.38Z" fill="#FFC1C1"/>
<path d="M143.064 164.38H126.383C123.991 164.38 122.053 166.322 122.053 168.718V185.427C122.053 187.823 123.991 189.765 126.383 189.765H143.064C145.456 189.765 147.394 187.823 147.394 185.427V168.718C147.394 166.322 145.456 164.38 143.064 164.38Z" fill="#FFC1C1"/>
<path d="M179.748 164.38H163.067C160.675 164.38 158.737 166.322 158.737 168.718V185.427C158.737 187.823 160.675 189.765 163.067 189.765H179.748C182.139 189.765 184.078 187.823 184.078 185.427V168.718C184.078 166.322 182.139 164.38 179.748 164.38Z" fill="#FFC1C1"/>
<path d="M216.433 164.38H199.752C197.36 164.38 195.422 166.322 195.422 168.718V185.427C195.422 187.823 197.36 189.765 199.752 189.765H216.433C218.824 189.765 220.763 187.823 220.763 185.427V168.718C220.763 166.322 218.824 164.38 216.433 164.38Z" fill="#FFC1C1"/>
<path d="M83.5562 271.02H75.1681V276.476H89.6976C90.6644 276.476 90.9912 274.321 90.1469 273.844L83.5562 271.02Z" fill="#425AC2"/>
<path d="M59.1143 271.02H50.7397V276.476H65.2692C66.2224 276.476 66.5628 274.321 65.7186 273.844L59.1143 271.02Z" fill="#425AC2"/>
<path d="M187.51 146.375C189.402 147.016 194.318 150.849 196.497 155.132C198.145 158.337 206.696 175.592 206.274 178.32C205.852 181.048 180.402 197.758 180.402 197.758L176.602 189.301C176.602 189.301 194.305 177.475 193.678 175.783C193.052 174.092 184.146 156.209 184.146 156.209L187.51 146.375Z" fill="white"/>
<path d="M171.483 205.751H156.205L157.035 271.88H162.931C162.931 271.88 167.398 238.611 169.086 220.224H171.224C171.51 215.395 171.51 210.594 171.483 205.751Z" fill="#FFB3B6"/>
<path d="M174.574 204.101L160.521 210.921C162.673 215.259 164.756 219.583 166.608 224.043L168.365 223.198L192.018 269.111L197.328 266.533C197.328 266.533 180.988 216.828 176.426 207.879C175.877 206.587 175.259 205.326 174.574 204.101Z" fill="#FFB3B6"/>
<path d="M182.812 184.554H160.956L155.373 149.335C155.073 146.457 157.838 143.988 161.365 143.988H184.105C187.632 143.988 190.41 146.457 190.11 149.335L182.812 184.554Z" fill="white"/>
<path d="M156.518 271.784H163.204V276.913H149.655C148.77 276.913 148.457 274.908 149.233 274.471L156.518 271.784Z" fill="#0E24A5"/>
<path d="M191.363 269.329L197.368 266.396L199.615 271.021L187.428 276.94C186.624 277.336 185.48 275.658 185.984 274.935L191.363 269.329Z" fill="#0E24A5"/>
<path d="M160.956 184.554H182.744C182.744 184.554 188.436 191.224 192.439 211.085C195.871 228.053 199.397 253.752 199.397 253.752H147.544C147.544 253.752 151.275 215.968 154.189 203.692C157.185 191.02 160.956 184.554 160.956 184.554Z" fill="#425AC2"/>
<mask id="mask0_3_763" style="mask-type:alpha" maskUnits="userSpaceOnUse" x="155" y="143" width="36" height="42">
<path d="M182.812 184.554H160.956L155.373 149.335C155.073 146.457 157.838 143.988 161.365 143.988H184.105C187.632 143.988 190.41 146.457 190.11 149.335L182.812 184.554Z" fill="white"/>
</mask>
<g mask="url(#mask0_3_763)">
<path d="M195.571 178.239H151.288V180.776H195.571V178.239Z" fill="#03053F"/>
<path d="M195.571 172.06H151.288V174.597H195.571V172.06Z" fill="#03053F"/>
<path d="M195.571 165.867H151.288V168.404H195.571V165.867Z" fill="#03053F"/>
<path d="M195.571 159.674H151.288V162.211H195.571V159.674Z" fill="#03053F"/>
<path d="M195.571 153.482H151.288V156.019H195.571V153.482Z" fill="#03053F"/>
<path d="M195.571 147.302H151.288V149.84H195.571V147.302Z" fill="#03053F"/>
</g>
<path d="M170.215 146.388H174.192C174.822 146.35 175.411 146.062 175.829 145.589C176.248 145.116 176.462 144.496 176.425 143.865V138.954C176.462 138.323 176.248 137.703 175.829 137.23C175.411 136.757 174.822 136.469 174.192 136.431H170.215C169.584 136.469 168.994 136.756 168.573 137.229C168.153 137.702 167.935 138.322 167.969 138.954V143.865C167.935 144.497 168.153 145.117 168.573 145.59C168.994 146.063 169.584 146.35 170.215 146.388Z" fill="#E98896"/>
<path d="M163.434 136.417C165.041 141.873 169.562 141.014 174.968 139.404C176.255 139.02 177.453 138.386 178.495 137.538C179.537 136.689 180.402 135.644 181.041 134.461C181.679 133.278 182.079 131.981 182.217 130.643C182.355 129.305 182.228 127.953 181.845 126.664C181.461 125.375 180.828 124.175 179.981 123.131C179.134 122.088 178.091 121.221 176.91 120.582C175.729 119.942 174.434 119.542 173.098 119.403C171.763 119.265 170.413 119.392 169.126 119.776C163.775 121.385 161.841 131.002 163.434 136.417Z" fill="#FFCACE"/>
<path d="M169.521 118.357C163.284 120.758 162.808 123.977 162.481 125.982C162.209 127.769 163.434 126.61 166.362 127.005C168.091 127.251 169.766 127.251 169.916 128.369C170.284 130.893 169.916 151.558 171.21 151.558C172.503 151.558 190.696 152.663 191.118 150.971C191.54 149.28 188.108 125.464 181.313 120.717C175.785 116.884 172.258 117.293 169.521 118.357Z" fill="#FE958E"/>
<path d="M162.781 144.165C162.781 144.165 145.76 143.442 143.595 142.896C141.43 142.351 126.995 121.426 126.995 121.426L122.461 123.704C122.461 123.704 135.52 148.257 138.243 149.335C140.967 150.412 157.089 156.55 157.089 156.55C157.089 156.55 160.031 156.55 161.937 151.681C163.939 146.607 162.781 144.165 162.781 144.165Z" fill="white"/>
<mask id="mask1_3_763" style="mask-type:alpha" maskUnits="userSpaceOnUse" x="122" y="92" width="26" height="26">
<path d="M143.064 92.141H126.383C123.991 92.141 122.053 94.083 122.053 96.4786V113.188C122.053 115.584 123.991 117.526 126.383 117.526H143.064C145.456 117.526 147.394 115.584 147.394 113.188V96.4786C147.394 94.083 145.456 92.141 143.064 92.141Z" fill="#FFC1C1"/>
</mask>
<g mask="url(#mask1_3_763)">
<path d="M110.6 78.6248L108.549 80.6792L158.879 131.095L160.93 129.04L110.6 78.6248Z" fill="#425AC2"/>
<path d="M158.856 78.5526L108.526 128.968L110.577 131.022L160.906 80.607L158.856 78.5526Z" fill="#425AC2"/>
</g>
<mask id="mask2_3_763" style="mask-type:alpha" maskUnits="userSpaceOnUse" x="48" y="128" width="27" height="26">
<path d="M69.7084 128.261H53.0274C50.6359 128.261 48.6971 130.203 48.6971 132.598V149.308C48.6971 151.703 50.6359 153.645 53.0274 153.645H69.7084C72.0999 153.645 74.0386 151.703 74.0386 149.308V132.598C74.0386 130.203 72.0999 128.261 69.7084 128.261Z" fill="#FFC1C1"/>
</mask>
<g mask="url(#mask2_3_763)">
<path d="M37.224 114.749L35.1731 116.803L85.5026 167.219L87.5535 165.164L37.224 114.749Z" fill="#425AC2"/>
<path d="M85.5026 114.749L35.1731 165.164L37.224 167.219L87.5535 116.803L85.5026 114.749Z" fill="#425AC2"/>
</g>
<mask id="mask3_3_763" style="mask-type:alpha" maskUnits="userSpaceOnUse" x="85" y="164" width="26" height="26">
<path d="M106.392 164.38H89.7112C87.3197 164.38 85.381 166.322 85.381 168.718V185.427C85.381 187.823 87.3197 189.765 89.7112 189.765H106.392C108.784 189.765 110.722 187.823 110.722 185.427V168.718C110.722 166.322 108.784 164.38 106.392 164.38Z" fill="#FFC1C1"/>
</mask>
<g mask="url(#mask3_3_763)">
<path d="M73.9132 150.847L71.8622 152.902L122.192 203.317L124.243 201.263L73.9132 150.847Z" fill="#425AC2"/>
<path d="M122.192 150.834L71.8623 201.249L73.9132 203.304L124.243 152.888L122.192 150.834Z" fill="#425AC2"/>
</g>
<path d="M159.077 62.7183H149.667V74.4899H159.077V62.7183Z" fill="#E98896"/>
<path d="M157.702 66.4151C153.753 69.7298 151.016 66.7698 147.707 62.8141C146.919 61.8737 146.324 60.787 145.956 59.6162C145.587 58.4455 145.452 57.2134 145.559 55.9905C145.666 54.7676 146.012 53.5777 146.578 52.4888C147.144 51.3999 147.919 50.4334 148.857 49.6443C149.796 48.8553 150.881 48.2592 152.05 47.8901C153.219 47.521 154.449 47.3861 155.669 47.4931C156.89 47.6001 158.078 47.947 159.165 48.5139C160.252 49.0807 161.217 49.8565 162.005 50.7969C165.314 54.7799 161.651 63.1278 157.702 66.4151Z" fill="#FFB3B6"/>
<path d="M152.786 49.2145C150.743 49.2145 146.835 43.1036 150.403 39.6662C153.766 36.4744 159.199 39.4071 159.404 42.899C159.771 48.8735 157.225 49.2145 152.786 49.2145Z" fill="#0E24A5"/>
<path d="M142.805 59.1857C144.167 59.1857 148.497 58.1217 149.478 55.1754C150.458 52.2291 150.717 51.7926 153.726 51.7926C157.634 51.7926 158.751 51.7926 159.323 53.9342C160.194 57.1669 164.77 61.9547 167.697 61.3681C170.625 60.7816 169.454 51.3288 164.756 49.1736C160.058 47.0185 147.122 43.472 144.97 47.2095C142.819 50.9469 142.029 59.1857 142.029 59.1857H142.805Z" fill="#0E24A5"/>
<path d="M129.159 107.598L121.889 114.88L124.585 117.581L131.855 110.299L129.159 107.598Z" fill="white"/>
<path d="M126.995 121.385C126.995 121.385 128.357 114.975 126.723 114.661C125.674 114.443 125.361 117.293 123.877 116.761C123.237 116.543 124.816 110.746 123.659 110.637C122.501 110.528 120.077 116.243 120.282 117.825C120.84 119.857 121.569 121.837 122.46 123.745L126.995 121.385Z" fill="#FFB3B6"/>
<path d="M129.147 107.595L131.843 110.296L132.933 107.486L132.211 106.668L129.147 107.595Z" fill="#FEE2E3"/>
<path d="M132.211 106.668L132.933 107.472C132.933 107.472 133.968 106.49 133.573 106.108C133.178 105.726 132.211 106.668 132.211 106.668Z" fill="#0E24A5"/>
<mask id="mask4_3_763" style="mask-type:alpha" maskUnits="userSpaceOnUse" x="147" y="184" width="53" height="70">
<path d="M160.956 184.554H182.744C182.744 184.554 188.436 191.224 192.439 211.085C195.871 228.053 199.397 253.752 199.397 253.752H147.544C147.544 253.752 151.275 215.968 154.189 203.692C157.185 191.02 160.956 184.554 160.956 184.554Z" fill="#425AC2"/>
</mask>
<g mask="url(#mask4_3_763)">
<path d="M152.99 194.948H164.401C164.401 194.948 165.409 209.857 156.34 212.763C149.259 215.041 147.611 211.085 147.611 211.085L152.99 194.948Z" fill="#0E24A5"/>
</g>
<path d="M52.9593 203.187C52.9593 203.187 63.5262 202.341 64.5339 200.827C65.5415 199.313 62.6956 196.967 58.8283 197.294C57.6348 197.445 56.4839 197.835 55.4449 198.442C54.4059 199.049 53.5002 199.86 52.7823 200.827L52.9593 203.187Z" fill="#FFB3B6"/>
<path d="M125.552 35.2471H131.557C131.557 35.2471 133.545 26.2309 132.456 25.6989C131.802 25.3988 130.863 28.5634 130.441 29.3136C130.018 30.0638 126.75 28.9862 125.906 30.1593C125.062 31.3324 125.552 35.2471 125.552 35.2471Z" fill="#FFB3B6"/>
<path d="M183.915 35.2471H177.91C177.91 35.2471 175.922 26.2309 177.011 25.6989C177.665 25.3988 178.604 28.5634 179.026 29.3136C179.449 30.0638 182.717 28.9862 183.561 30.1593C184.405 31.3324 183.915 35.2471 183.915 35.2471Z" fill="#FFB3B6"/>
<path d="M253.008 246.4H204.668V249.087H253.008V246.4Z" fill="#FEE2E3"/>
<path d="M157.347 9.1254C157.347 11.4852 154.474 17.6097 154.474 17.6097C154.474 17.6097 150.974 11.4852 150.974 9.1254C150.974 6.76562 154.474 0 154.474 0C154.474 0 157.347 6.77926 157.347 9.1254Z" fill="#FFC1C1"/>
<path d="M126.07 14.991C127.431 16.9279 128.575 23.598 128.575 23.598C128.575 23.598 122.202 20.5972 120.841 18.6602C119.479 16.7233 118.485 9.112 118.485 9.112C118.485 9.112 124.708 13.0541 126.07 14.991Z" fill="#FFC1C1"/>
<path d="M107.332 37.1293C109.538 37.9887 114.141 42.9128 114.141 42.9128C114.141 42.9128 107.169 43.9359 104.977 43.0766C102.784 42.2172 97.7866 36.4746 97.7866 36.4746C97.7866 36.4746 105.126 36.27 107.332 37.1293Z" fill="#FFC1C1"/>
<path d="M181.995 14.991C180.633 16.9279 179.489 23.598 179.489 23.598C179.489 23.598 185.862 20.5972 187.224 18.6602C188.585 16.7233 189.58 9.112 189.58 9.112C189.58 9.112 183.357 13.0541 181.995 14.991Z" fill="#FFC1C1"/>
<path d="M200.732 37.1293C198.539 37.9887 193.923 42.9128 193.923 42.9128C193.923 42.9128 200.895 43.9359 203.101 43.0766C205.307 42.2172 210.291 36.4746 210.291 36.4746C210.291 36.4746 202.938 36.27 200.732 37.1293Z" fill="#FFC1C1"/>
</svg>
